<svg version="1.0" xmlns="http://www.w3.org/2000/svg"
 width="597.000000pt" height="768.000000pt" viewBox="0 0 597.000000 768.000000"
 preserveAspectRatio="xMidYMid meet">

<g transform="translate(0.000000,768.000000) scale(0.100000,-0.100000)"
fill="" stroke="none">
<path d="M1990 7672 c-114 -8 -125 -15 -272 -173 -84 -91 -120 -140 -256 -357
-24 -38 -54 -80 -66 -93 -51 -56 -141 -231 -169 -329 -9 -30 -25 -104 -37
-165 -12 -60 -30 -144 -41 -185 -60 -241 -94 -700 -65 -889 9 -58 16 -110 16
-118 0 -18 -24 -16 -99 7 -35 11 -73 18 -84 14 -15 -5 -7 -13 44 -41 35 -19
78 -47 94 -63 37 -34 62 -43 69 -25 6 17 55 13 66 -5 6 -10 11 -8 19 8 18 33
13 62 -15 95 -31 37 -15 51 20 18 l23 -22 11 43 c6 24 16 68 22 98 6 30 16 73
21 95 6 22 13 50 16 63 7 30 -16 75 -32 62 -6 -5 -24 -8 -40 -6 -27 3 -30 7
-28 36 2 42 6 45 42 27 23 -12 34 -12 46 -3 14 10 13 14 -9 35 -25 23 -35 61
-17 61 4 0 8 30 8 68 0 64 10 110 57 252 21 64 22 65 72 80 28 8 57 20 65 26
19 16 96 54 108 54 16 0 20 -27 6 -51 -43 -76 -75 -150 -70 -159 4 -7 14 -6
28 2 27 14 127 19 182 8 22 -4 32 -8 23 -9 -32 -2 -21 -48 22 -92 28 -29 40
-50 40 -71 0 -16 6 -31 15 -34 27 -11 16 -22 -42 -40 -82 -25 -204 -87 -233
-119 l-25 -28 40 8 c22 4 79 22 127 41 66 26 102 34 145 33 l58 -1 -45 -20
c-48 -22 -232 -78 -257 -78 -29 0 -93 -43 -93 -63 0 -16 5 -18 53 -12 28 4 71
2 95 -3 41 -10 42 -10 37 15 -4 25 -3 25 46 19 27 -4 56 -9 64 -12 28 -11 15
-24 -24 -24 -45 0 -61 -14 -34 -29 16 -8 15 -10 -7 -15 -14 -3 -54 -7 -90 -8
l-65 -3 -6 -50 c-4 -27 -10 -57 -13 -66 -4 -10 2 -28 16 -45 36 -45 48 -71 48
-103 0 -31 60 -144 84 -158 8 -4 23 -24 34 -43 17 -32 18 -43 9 -93 -9 -48
-18 -65 -59 -107 -26 -27 -48 -53 -48 -57 0 -16 -46 -58 -85 -80 -46 -25 -53
-43 -29 -68 11 -11 19 -38 22 -74 4 -53 29 -131 42 -131 37 0 77 86 65 140 -5
23 -2 31 17 42 30 17 61 19 70 4 4 -6 8 -32 8 -58 0 -49 16 -73 26 -41 12 36
70 144 91 171 26 34 40 23 20 -15 -42 -77 -47 -223 -12 -337 26 -83 46 -106
97 -106 10 0 30 -7 43 -16 13 -8 34 -14 47 -12 22 3 23 7 20 70 -3 56 0 68 15
75 25 11 96 9 173 -6 36 -7 110 -18 165 -26 55 -7 90 -13 78 -14 -28 -1 -30
-21 -3 -28 11 -3 20 -14 20 -24 0 -11 4 -19 9 -19 11 0 21 -49 14 -67 -3 -7
-20 -13 -38 -13 -18 0 -44 -9 -58 -20 -14 -11 -34 -20 -45 -20 -33 0 -46 -27
-44 -91 2 -52 -1 -60 -23 -75 -14 -9 -25 -21 -25 -27 0 -6 -9 -20 -19 -31 -28
-31 -29 -57 -2 -94 17 -25 21 -39 15 -60 -4 -15 -6 -33 -5 -41 1 -8 -3 -18
-11 -22 -10 -7 -10 -9 0 -9 7 0 15 6 18 14 4 10 15 11 52 4 42 -7 48 -6 64 14
21 29 36 16 45 -35 7 -46 -9 -67 -52 -67 -20 0 -33 -5 -32 -12 0 -7 -1 -30 -1
-50 -2 -33 -5 -38 -27 -38 -14 0 -25 5 -25 10 0 16 -37 12 -44 -5 -3 -8 -12
-15 -21 -15 -8 0 -15 -5 -15 -10 0 -6 -11 -16 -25 -22 -22 -10 -29 -8 -50 12
l-25 23 -13 -32 c-12 -28 -15 -30 -27 -17 -7 9 -20 16 -30 16 -10 0 -23 7 -30
15 -18 21 -37 19 -43 -6 -5 -20 -7 -20 -28 -6 -16 11 -27 13 -40 6 -12 -6 -20
-5 -24 1 -8 14 -113 80 -125 80 -6 0 -36 13 -68 29 -31 15 -76 31 -98 35 -59
8 -64 -13 -19 -75 l34 -48 -22 -18 c-37 -29 -39 -40 -16 -84 16 -33 18 -43 8
-50 -16 -9 -44 5 -53 26 -5 14 -36 22 -36 9 0 -4 12 -21 28 -38 57 -67 72 -91
72 -112 0 -12 4 -24 10 -26 21 -7 8 -168 -17 -212 -8 -14 -8 -27 -1 -42 6 -13
7 -31 4 -41 -4 -10 -8 -20 -8 -23 -1 -5 -11 -21 -57 -94 -25 -40 -33 -41 -108
-23 -14 4 -23 1 -23 -5 0 -17 -39 22 -46 46 -3 11 -16 35 -29 51 -33 45 -91
200 -106 282 -11 64 -10 75 4 97 25 37 22 59 -5 51 -13 -4 -27 -12 -33 -19 -5
-6 -20 -10 -32 -8 -31 5 -67 -17 -170 -100 -173 -140 -188 -148 -287 -168 -85
-17 -297 -90 -376 -130 -46 -22 -304 -100 -333 -100 -16 0 -17 -103 -17 -1420
l0 -1420 2985 0 2985 0 0 420 0 420 -61 90 c-33 50 -88 148 -121 218 -33 70
-81 159 -108 198 -26 39 -78 129 -113 201 -36 72 -103 185 -148 253 -49 74
-88 145 -99 179 -29 98 -46 114 -222 212 -108 60 -322 126 -483 148 -85 13
-204 45 -254 70 -84 42 -265 88 -436 111 -178 24 -225 39 -279 90 -28 26 -76
61 -106 78 -85 48 -121 85 -115 119 3 15 17 96 31 178 14 83 34 195 44 250 10
55 23 134 30 175 24 146 34 169 115 260 152 171 207 272 290 535 43 138 50
153 90 190 39 37 43 46 54 115 20 132 30 170 81 297 57 145 85 287 78 395 -7
90 -31 118 -107 126 -28 2 -55 10 -61 16 -5 7 -15 45 -22 84 -11 65 -10 80 10
161 43 174 54 290 48 501 l-6 195 36 45 c47 58 99 170 114 242 30 149 -54 414
-203 642 -106 162 -302 390 -377 438 -22 15 -110 17 -805 21 -429 3 -823 2
-875 -1z m565 -2111 c-22 -21 -48 -54 -59 -74 -16 -31 -83 -97 -123 -121 -42
-25 -20 46 27 89 24 21 26 51 5 59 -25 9 -17 24 10 18 15 -2 25 0 25 7 0 16
137 74 150 63 3 -2 -13 -21 -35 -41z m150 -189 c42 -22 54 -46 51 -97 -3 -55
-15 -64 -54 -44 -35 18 -64 48 -79 82 -13 29 -17 70 -7 79 6 7 63 -5 89 -20z
m-167 -49 c2 -7 -1 -13 -6 -13 -6 0 -14 -9 -17 -21 -4 -13 -28 -30 -63 -46
-30 -13 -66 -33 -80 -43 -19 -16 -27 -17 -43 -7 -27 17 -31 34 -19 78 6 21 12
39 13 40 12 4 168 24 186 24 13 0 26 -6 29 -12z m222 -203 c0 -5 -6 -10 -14
-10 -8 0 -18 5 -21 10 -3 6 3 10 14 10 12 0 21 -4 21 -10z m-210 -70 c0 -5
-12 -12 -27 -16 -16 -3 -39 -9 -53 -14 -60 -20 -103 -22 -143 -4 -52 24 -30
31 80 28 45 -2 85 1 88 7 8 12 55 12 55 -1z m-220 -111 c15 -27 -3 -49 -40
-49 -25 0 -46 -21 -42 -42 1 -5 -5 -8 -13 -8 -17 0 -17 -2 -9 -24 5 -14 10
-14 41 -1 39 16 97 19 128 5 11 -5 16 -9 12 -9 -4 -1 1 -11 13 -23 25 -27 25
-37 3 -44 -41 -13 -121 -51 -163 -77 -31 -19 -56 -27 -80 -26 -19 2 -47 -3
-62 -10 -33 -17 -58 -8 -58 18 0 29 31 91 46 91 12 0 24 44 24 91 0 41 64 86
135 94 40 5 52 11 48 21 -8 22 5 17 17 -7z m-590 -118 c0 -38 -15 -71 -31 -71
-23 0 -24 8 -3 48 14 30 34 43 34 23z m853 -197 c7 -11 13 -10 36 7 23 17 38
19 107 15 43 -2 82 -5 87 -5 4 -1 8 -11 8 -23 2 -23 2 -23 6 -1 5 27 60 38
140 28 47 -6 57 -11 71 -36 17 -29 32 -38 32 -19 0 5 11 17 24 25 33 22 71 5
93 -40 19 -39 38 -45 48 -15 9 28 41 44 55 28 32 -39 70 -92 70 -98 0 -12 -69
-70 -84 -70 -7 0 -21 9 -31 20 -31 34 -100 22 -93 -16 3 -18 -5 -19 -102 -20
-58 -1 -131 -5 -162 -9 -76 -10 -182 10 -175 34 5 19 7 19 -254 18 -120 0
-207 13 -236 36 -16 12 -17 63 -2 73 7 4 25 7 40 6 18 0 29 5 29 12 0 26 32
40 84 38 36 -1 59 4 80 17 33 22 115 19 129 -5z m-1351 -1499 c21 -72 57 -161
109 -273 32 -68 60 -144 55 -149 -1 -2 -23 36 -47 84 -24 49 -56 108 -71 133
-39 66 -100 261 -95 302 7 47 8 47 18 8 5 -19 19 -66 31 -105z"/>
<path d="M2802 4451 c-11 -7 -10 -10 3 -15 24 -9 73 -7 79 3 12 19 -56 29 -82
12z"/>
<path d="M3011 4450 c-24 -5 -46 -11 -48 -14 -3 -2 25 -7 61 -11 72 -8 125 0
109 16 -15 15 -73 19 -122 9z"/>
<path d="M841 5318 c-34 -35 -46 -87 -45 -188 1 -153 41 -287 134 -450 26 -47
57 -103 69 -125 l21 -40 0 32 c0 18 -19 88 -42 155 -42 120 -43 126 -42 248 0
134 17 242 41 262 20 16 49 -18 63 -75 17 -66 28 -87 48 -87 31 0 56 25 47 46
-4 10 -10 27 -12 37 -9 50 -90 141 -167 188 -42 26 -90 24 -115 -3z"/>
<path d="M1186 5103 c2 -16 1 -35 -2 -45 -5 -17 -85 -64 -119 -70 -27 -4 -67
-64 -76 -113 -8 -40 14 -145 29 -145 4 0 48 41 97 90 49 50 92 90 95 90 7 0
11 -211 4 -232 -7 -23 -35 -23 -65 1 -13 10 -41 21 -61 25 l-38 7 0 -46 c0
-93 62 -352 86 -362 15 -5 151 22 171 35 10 6 9 21 -1 67 -21 94 -35 188 -52
345 -9 79 -18 149 -21 154 -4 5 -7 32 -8 60 -2 59 -25 166 -35 166 -4 0 -6
-12 -4 -27z m7 -528 c4 -8 2 -17 -3 -20 -12 -7 -50 12 -50 25 0 16 47 11 53
-5z m63 -95 c-9 -66 -25 -100 -47 -100 -31 0 -31 19 0 85 37 80 56 86 47 15z"/>
<path d="M1480 4096 c0 -9 7 -16 16 -16 9 0 14 5 12 12 -6 18 -28 21 -28 4z"/>
<path d="M1552 3741 c2 -7 7 -12 11 -12 12 1 9 15 -3 20 -7 2 -11 -2 -8 -8z"/>
</g>
</svg>
